<?xml version="1.0" encoding="utf-8"?>
<!-- Generator: Adobe Illustrator 23.0.1, SVG Export Plug-In . SVG Version: 6.00 Build 0)  -->
<svg version="1.1" xmlns="http://www.w3.org/2000/svg" xmlns:xlink="http://www.w3.org/1999/xlink" x="0px" y="0px"
	 viewBox="0 0 3300 2550" style="enable-background:new 0 0 3300 2550;" xml:space="preserve">
<style type="text/css">
	.st0{fill:#A10300;enable-background:new    ;}
</style>
<g id="Layer_2">
</g>
<g id="Layer_3">
	<g>
		<path class="st0" d="M913.2,805.4c6.8,12.3,12.8,10.6,25.9,16c9,3.7,17.8,8.8,29.7,16.4c11.9,7.6,32.8,20.8,45.3,32
			c16.7,14.9,33,31.2,44.3,50.6c0.8,1.3,1.3,1.9,2.1,2.8c1.6,1.8,4.9,1.4,6.4,1.8c13.1,3.5,17.7,6.5,30.1,14.3
			c17.1,10.8,37.1,24.8,50.4,42.2c5.4,7.1,12.5,14.2,16.4,22.9c0.2,0.5,1.4,2.6,2.5,3c1.5,0.6,4.7-0.7,5.6-1.3
			c2.8-1.7,2.8-3.5,4.8-5.4c5.6-5.1,4.2-5.9,13.2-10.3c5.3-2.6,20.4-5.8,30.3-5.7c4.5,0,15.6-2.3,22.5-0.1c1.1,0.3,11,2.1,11.7,5.9
			c0,0.1,2.1,2.4,2.9,2.5c0.3,0,1.6,1,2.2,0.5c0.6-0.6,0.9-1.3,1-2c1.3-6.4,1.5-6.3,3-13.9c2.6-13.1,4.9-22.2,11.2-38.7
			c2.8-7.2,11.7-29.3,18.1-39.9c3-4.9,6.8-13.9,11.5-19.7c10.1-12.7,18.7-22.2,32.5-34.5c5.9-5.2,15-13.7,24.9-20.6
			c9.2-6.5,20.4-15.2,34.2-21.9c6.1-3,19.6-8.3,31-12.7c3.3-1.3,24.4-9.8,32.2-11.5c0.5-0.1,4.7-2.2,8.7-1.7
			c3,0.4,11.6,0.3,17.9,2.8c3.2,1.2,16.7,3.8,19.9,9.2c0.6,1.1,2.4,3.4,3,4.8c0,0.1,0.5,0.2,0.2,0.6c-0.3,0.4-1.4,1-2.2,1.1
			c-0.3,0-0.8,0.3-1.3,0.4c-3.6,0.7-7.3,2.3-9.2,5.5c-0.5,0.9,0.1,1.7,0.2,1.9c0.8,1.8,2.7,2.1,4.1,2.6c7.7,2.4,16,5.3,22.4,9.4
			c4.6,3,5.1,6,9.4,9.2c3.3,2.4,8.4,5.6,9.8,9.9c0.3,0.8,0.6,1.3-0.1,1.5c-5.6,1.6-10.9-2-16.3-3.8c-3-1-9.1-1.6-11.9-1.5
			c-3.4,0.1-8.7,1.8-10.4,2.7c-5.8,3.1-8.5,5.8-11,10.9c-0.8,1.6,0.1,2.7-0.3,4.2c-0.1,0.5-0.5,1,0.1,1.4c2.2,1.2,4.7-0.2,7.1-0.1
			c0.8,0,2.5,0.6,3.4,0.8s4,0.7,4.5,0.7c3.7,0.3,10.9,3.3,12.8,4.4c10.9,6.5,14.3,6.5,24.7,15.9c5.9,5.3,16.9,19.6,19.9,30.2
			c1.1,4,3.7,10.8,3.6,15.9c-0.1,4.4,0.7,9.8,0.4,14.5c0,0.3,0,1.3,0.3,1.8c0.7,1.6,3,2.8,4.5,3.5c10.3,5.1,19.1,13.7,27.5,20.9
			c7.2,6.2,15.1,19.3,18.2,26c7.2,15.3,9.1,30.3,11,44.3c1.6,12.3,4.9,26.6-0.8,35.3c-2.4,3.7-4.4-7.4-5.8-10.2
			c-2.8-5.5-13.6-20.3-17.6-24.8c-6.4-7.2-18-17-22.6-20.3c-16.7-12.1-27.5-16.3-45.1-22.6c-0.4-0.2-0.6-0.1-1.2,0s-0.2,1.2-0.2,1.4
			c-0.5,1.7,3.8,3.8,4,3.9c6.3,4.2,8.7,5.2,14.9,10.1c10.4,8.3,17.5,10.2,27.2,25.3c2.6,4,12.3,22.3,12.3,35
			c0,12.3-3.6,40.9-9.5,53.7c-3.5,7.5-3.2,14.9-9.3,18.2c-3.2,1.7-1.3-2.4-2.7-3.5c-1.7-1.4-3.5-4.3-4.9-5.8
			c-5.2-5.5-8.5-12.1-13.3-17.7c-4.8-5.6-11-9.7-16.1-14.9c-2.8-2.8-6-9.2-10.1-9c-2.3,0.1,0.2,3.6,0.4,5c0.4,2.6,2.6,6.9,3.3,9.3
			c2,6.7,2.4,8.8,3.1,16.5c0.7,6.9,0.1,18.4-0.7,26.6c-0.1,1.3,0.1,5.7-2,6.3c-1.4,0.4-1.9-0.9-2.8-1.7c-3.9-3.2-6.9-3.8-11.8-6.2
			c-5.2-2.5-9.5-5.6-15.5-9.1c-6.3-3.6-16.9-7.9-24.5-8.4c-3.7-0.2-8.2-1.3-10.3,1.1c-1.3,1.5,2.8,1.5,4,2.3c2.6,1.5,7,5.5,8.9,7.9
			c6,7.3,11.9,11,17.8,18.6c5.3,6.8,9.5,13.4,13.6,23.1c0.4,0.9,4.7,14.9,1.3,17.8c-0.4,0.4-0.1,2.8-1.6,2.1c-4-1.7-3.9-5.8-6.5-9.2
			c-5.7-7.4-9.2-11.4-18.9-16.7c-6-3.3-17.1-5.5-26-7.3c-6.8-1.3-17.6-6-25.4-2.6c-5.9,2.5-7.8,4.4-13.5,9.7
			c-3.3,3-11.5,13.2-13.9,18.5c-0.5,1.2-2.9,5-2.9,5.4c0.1,7.9-20.7,32.7-21.4,36c-4.9,20.6-51.8,44.2-58.4,47.5
			c-36.5,18.5-54.5,24.7-89,26.9c-3.7,0.2-5.1-1.4-9.3,0.5c-0.6,0.3-3.1,2.7-4,3.3c-1.7,1.1-4.5,8.8-4.6,9.2
			c-2.3,11.5-4.1,24.1-6.1,33.8c-1.7,8.6-1.8,12.1-1.3,20c0.1,1.5,0.7,3.3,1.2,4.7c2.1,6.6,5,12.4,7.6,18.9c0.2,0.6,0.3,1.6,1.4,2.1
			c2.6,1.2,5.2,0.4,8.4,0.8c2.3,0.3,5.8,2.8,6.7,5.1c0.6,1.6,0.1,3.8-0.4,4.6c-3.2,5-8.7,6.3-13.1,9c-3.1,1.9-4.5,4.4-7.7,5.5
			c-4.4,1.6-9.9,1-13.7-0.9c-5.2-2.6-7.4-6.8-12.9-8.3c-1.5-0.4-2.8,0.1-4.2,0.2c-10.2,0.2-19.7-2.2-30.1-0.9
			c-2.4,0.3-2.4,1.1-6,1.9c-4,0.8-12.2,1.8-17.3-0.1c-0.6-0.2-1-0.2-2.4-0.8c-3.2-1.5-8.1-4.1-8.9-8.4c-0.4-2.2,1.2-4.1,2.6-5.3
			c3.9-3.3,8.9-4.1,13.3-5.6c2.5-0.9,3.3-2,5.8-2.5c7.2-1.5,14-0.2,21.8-0.7c1.3-0.1,4.4-0.5,6.3-2.1c0.4-0.3,3.4-3,3.7-4.8
			c0.5-2.4-0.5-6.9-1.5-9c-7.2-14.6-13.1-28.3-15.2-44.3c-0.2-1.2-0.3-2.3-1-3.2c-1-1.3-4.6,0.9-4.8,1c-2.1,0.6-3.8,4.1-4.4,4.9
			c-10.8,14.4-23.8,21.9-39.6,28.9c-1,0.4-1.3,0.3-1.9,1.2c-0.6,0.9,0.3,1.2,0.1,2.3c-1.4,8.8-9.2,16.5-14.7,23.4
			c0.5,2.6-0.4,3.1,1.3,5.9c0.9,1.5,2.9,3.7,5.6,5c4.2,2,10.3,4.1,15,6.4c1.4,0.7,3.5,2.3,4.9,3.3c4.4,2.9,14.8,5.3,15.7,10.8
			c0.8,5.5-2.2,5.3-6.8,8.8c-2.4,1.9-9.2,5.5-14.6,3.5c-2.6-1-5.1-2.7-9.4-5.6c-5.3-3.6-14.6-9.9-23.2-8.9
			c-5.2,0.6-7.5,4.1-14.2,6.2c-3.4,1.1-14.6,3.9-19.6,0.2c-3.1-2.3-3.9-5.9-8.7-7.4c-2.9-0.9-7.2,0.4-11.8,1.7
			c-2.4,0.7-6.6,1.6-11.1,2.5c-10.3,2-22.5,3.3-34,0.1c-0.9-0.2-3.7-0.7-5.1-3.3c-0.3-0.5-5.6-4.4-3.2-8.6c2-3.5,8-11.3,13.4-13.6
			c1.9-0.8,2.5-2.8,5.9-3.8c2-0.6,9.6-2,12.5-0.1c0.6,0.4,2.4,1.7,2.9,0.8c0.6-0.9-1.8-2.4-2.3-3.1c-1.1-1.3-5.9-2-6.8-2
			c-7.8-0.1-15.9,0.5-22.4-2.1c-6.6-2.6-9.9-4.7-10.9-11.8c-0.3-1.7,3.1-3.8,5.2-5.6c3.6-3.1,11.2-8.5,15.9-9.5
			c3.9-0.8,7.9,0,10.3,0.5c4.9,1,6.5,2.8,10.7,4.1c5.2,1.6,10.1,3,15.7,3.5c7.5,0.7,11,2.4,20.2,1c3.4-0.5,14.7-3.1,17.8-9.5
			c1.2-2.4,2.7-5.1,4-10.6c1.5-6.1,8.1-19.9,12.8-26c3.1-4,10.7-7.3,8.5-12.7c-1.8-4.4-6.1-2.2-11.2-2.8c-6-0.8-13.4-1.4-21-3.5
			c-9.1-2.5-18.2-6-28-11c-13-6.7-30.3-15.3-41.6-25.2c-13.4-11.7-23.1-18.7-30.6-35.8c-4.3-9.7-8.2-25.7-14-35.5
			c-1.2-2-3.4-5.8-3.8-6.4c-7.8-11.5-11.1-13.8-20.4-26.3c-5.8-7.9-14.2-30.8-17.3-42.4c-3-11.2-4.1-17.2-13.4-25.1
			c-4-3.5-6.8-2.6-15.2-7.5c-3.4-2-19.6-8.1-26.2-18.5c-1.8-2.9-17.6-21.1-14.3-33.4c2-7.4,1.8-28.3,1.8-38.7c0-1.7-0.5-4.5-3.3-6.4
			c-2.8-1.8-3.6,2.8-8.5-1.9c-3.8-3.7-5.2-9-6.2-21.6c-1.3-16-9.2-49.1-12.1-69c-0.3-1.8,1.7-5-2.3-6.4c-9.7-3.5-23.3-0.6-34,3.7
			c-1.1,0.4-4.8,1.4-6.4,0.2c-2.8-2.1-0.8-10.3-0.1-11.8c7.2-16.8,15.8-31,26.9-44.5c0.5-0.6,0.5-0.4,0.8-1.2
			c0.7-2.4-0.8-5.8-1.8-7.7c-1.3-2.5-4.2-3.8-5.7-5.3c-11.8-12-14.7-24.1-12.7-40.3c0.3-2.5,1.4-4.6,3.4-6.4
			c4.2-3.7,10.4-3.9,15.7-3.7c4.3,0.2,7.7,0.6,10.8,3c1.9,1.5,2,3.2,4,4.4c2,1.2,4.6,1,6.5-0.1c1.2-0.7,2-2.5,2.3-3.2
			c1.9-4,1.6-9.8,2.3-13.4c1.2-6.3,3.1-10.4,6.8-14.9c4.4-5.4,7.9-9.1,15.1-10.7c5-1.1,9.9,0.6,15.3,2.7s13.2,6.6,17.2,11.3
			c3.8,4.3,3.5,9.4,9.6,11c2.5,0.6,3.5-1.3,7.1-2.2c1.5-0.4,8.8-1.6,11.8-1.6c4.5-0.1,13.5,0.3,16.7,2.4c5.9,3.9,5.5,8,7.6,13.1
			c0.4,0.9,0.1,1.1,0.2,1.4c1,5.5-0.2,14.3-0.8,18.8C914.4,797.3,912.3,803.7,913.2,805.4z"/>
	</g>
</g>
</svg>
