<?xml version="1.0" encoding="utf-8"?>
<!-- Generator: Adobe Illustrator 23.0.1, SVG Export Plug-In . SVG Version: 6.00 Build 0)  -->
<svg version="1.1" id="Layer_1" xmlns="http://www.w3.org/2000/svg" xmlns:xlink="http://www.w3.org/1999/xlink" x="0px" y="0px"
	 viewBox="0 0 612 792" style="enable-background:new 0 0 612 792;" xml:space="preserve">
<style type="text/css">
	.st0{fill:#FFFF00;}
</style>
<path class="st0" d="M273.04,291.82c-32.3,2.5-66.2,10.5-97,22.9c-23.3,9.3-55.5,28.3-76,44.6c-27.8,22.3-40.1,36.5-46.5,54.1
	c-5.4,15.1-6.4,34.1-2.5,48.8c4.1,15.4,15,32.1,27.7,42.5c7.2,5.9,21.3,13.1,30.8,15.7c9.4,2.5,32.1,2.5,41-0.1
	c15.5-4.5,24.5-10,40-24.1c22.5-20.6,47-33.3,76.4-39.7c8.5-1.9,13.2-2.2,30.6-2.2s22.1,0.3,30.6,2.2c29.4,6.4,54.1,19.2,76.3,39.7
	c15.9,14.5,26,20.5,41.5,24.5c10.8,2.7,27.3,2.7,38.2,0c16.6-4.2,33.5-14.9,44.4-28.2c5.8-7.1,13.1-21.4,15.5-30.3
	c3.9-14.7,2.9-33.7-2.5-48.8c-5.1-13.9-11.9-23.3-27.7-37.9c-40.6-37.7-91.6-64.6-145.3-76.6
	C336.94,291.82,304.74,289.42,273.04,291.82z"/>
</svg>
