<?xml version="1.0" encoding="utf-8"?>
<!-- Generator: Adobe Illustrator 23.0.1, SVG Export Plug-In . SVG Version: 6.00 Build 0)  -->
<svg version="1.1" id="Layer_1" xmlns="http://www.w3.org/2000/svg" xmlns:xlink="http://www.w3.org/1999/xlink" x="0px" y="0px"
	 viewBox="0 0 612 792" style="enable-background:new 0 0 612 792;" xml:space="preserve">
<style type="text/css">
	.st0{fill:#FFFF00;}
</style>
<path class="st0" d="M288.45,347.2c-23.4,5.7-42.7,21.2-53,42.4c-6.7,13.7-7.9,19.6-7.9,36.5c0,17.1,1.2,22.9,8.1,36.8
	c5.7,11.7,17.6,24.8,29,31.8c26.1,16.3,60.5,16.3,86.6,0c11.4-7.1,23.3-20.1,28.9-31.8c7.1-14.4,8.3-19.9,8.3-36.8
	c0-17.1-1.3-23.1-8-36.5c-8.2-16.6-19.7-28.1-36-36C327.15,345.1,306.45,342.8,288.45,347.2z"/>
</svg>
