<?xml version="1.0" encoding="utf-8"?>
<!-- Generator: Adobe Illustrator 23.0.1, SVG Export Plug-In . SVG Version: 6.00 Build 0)  -->
<svg version="1.1" id="Layer_1" xmlns="http://www.w3.org/2000/svg" xmlns:xlink="http://www.w3.org/1999/xlink" x="0px" y="0px"
	 viewBox="0 0 612 792" style="enable-background:new 0 0 612 792;" xml:space="preserve">
<style type="text/css">
	.st0{fill:#FFFF00;}
</style>
<path class="st0" d="M295.9,213.49c-17.6,1.1-35,2.7-46,4c-125.7,15.3-242,67.1-339,150.8c-17.2,14.9-37.8,35.6-42.6,42.7
	c-14.7,22.2-17.7,52-7.5,76.7c16.2,39.3,60.8,59.4,101.2,45.7c13.6-4.6,20.6-9.4,36.9-25c49.3-47.1,105.5-82.1,168.3-104.9
	c101.8-36.9,217.6-36.9,319.4,0c63.4,23,117.2,56.6,169,105.6c13.7,13,20.4,17.8,31.3,22.5c11.1,4.7,22.1,6.7,34.9,6
	c12.2-0.6,19.7-2.4,29.8-7.2c15.2-7.1,28.2-18.7,36.2-32.2c12.7-21.5,14.7-50,5.1-73.3c-4.7-11.4-10.9-19.6-25.7-34
	c-65.1-63.6-146.8-113.7-233.5-143.5c-49.2-16.9-95.3-26.7-150.3-32.1C369.4,213.89,308.3,212.69,295.9,213.49z"/>
</svg>
